solid ASCII
  facet normal 0.000000e+00 5.547002e-01 8.320503e-01
    outer loop
      vertex   1.000000e+01 5.000000e+00 2.000000e+01
      vertex   1.000000e+01 2.000000e+01 1.000000e+01
      vertex   -1.000000e+01 5.000000e+00 2.000000e+01
    endloop
  endfacet
  facet normal 0.000000e+00 5.547002e-01 8.320503e-01
    outer loop
      vertex   -1.000000e+01 5.000000e+00 2.000000e+01
      vertex   1.000000e+01 2.000000e+01 1.000000e+01
      vertex   -1.000000e+01 2.000000e+01 1.000000e+01
    endloop
  endfacet
  facet normal 0.000000e+00 0.000000e+00 1.000000e+00
    outer loop
      vertex   1.000000e+01 5.000000e+00 2.000000e+01
      vertex   -1.000000e+01 5.000000e+00 2.000000e+01
      vertex   1.000000e+01 -1.000000e+01 2.000000e+01
    endloop
  endfacet
  facet normal 0.000000e+00 0.000000e+00 1.000000e+00
    outer loop
      vertex   1.000000e+01 -1.000000e+01 2.000000e+01
      vertex   -1.000000e+01 5.000000e+00 2.000000e+01
      vertex   -1.000000e+01 -1.000000e+01 2.000000e+01
    endloop
  endfacet
  facet normal -1.000000e+00 0.000000e+00 0.000000e+00
    outer loop
      vertex   -1.000000e+01 -1.000000e+01 2.000000e+01
      vertex   -1.000000e+01 5.000000e+00 2.000000e+01
      vertex   -1.000000e+01 -1.000000e+01 0.000000e+00
    endloop
  endfacet
  facet normal -1.000000e+00 0.000000e+00 0.000000e+00
    outer loop
      vertex   -1.000000e+01 -1.000000e+01 0.000000e+00
      vertex   -1.000000e+01 5.000000e+00 2.000000e+01
      vertex   -1.000000e+01 2.000000e+01 1.000000e+01
    endloop
  endfacet
  facet normal -1.000000e+00 0.000000e+00 0.000000e+00
    outer loop
      vertex   -1.000000e+01 -1.000000e+01 0.000000e+00
      vertex   -1.000000e+01 2.000000e+01 1.000000e+01
      vertex   -1.000000e+01 2.000000e+01 0.000000e+00
    endloop
  endfacet
  facet normal -0.000000e+00 1.000000e+00 0.000000e+00
    outer loop
      vertex   -1.000000e+01 2.000000e+01 1.000000e+01
      vertex   1.000000e+01 2.000000e+01 1.000000e+01
      vertex   -1.000000e+01 2.000000e+01 0.000000e+00
    endloop
  endfacet
  facet normal 0.000000e+00 1.000000e+00 0.000000e+00
    outer loop
      vertex   -1.000000e+01 2.000000e+01 0.000000e+00
      vertex   1.000000e+01 2.000000e+01 1.000000e+01
      vertex   1.000000e+01 2.000000e+01 0.000000e+00
    endloop
  endfacet
  facet normal 1.000000e+00 0.000000e+00 -0.000000e+00
    outer loop
      vertex   1.000000e+01 2.000000e+01 0.000000e+00
      vertex   1.000000e+01 2.000000e+01 1.000000e+01
      vertex   1.000000e+01 -1.000000e+01 0.000000e+00
    endloop
  endfacet
  facet normal 1.000000e+00 0.000000e+00 0.000000e+00
    outer loop
      vertex   1.000000e+01 -1.000000e+01 0.000000e+00
      vertex   1.000000e+01 2.000000e+01 1.000000e+01
      vertex   1.000000e+01 5.000000e+00 2.000000e+01
    endloop
  endfacet
  facet normal 1.000000e+00 0.000000e+00 0.000000e+00
    outer loop
      vertex   1.000000e+01 -1.000000e+01 0.000000e+00
      vertex   1.000000e+01 5.000000e+00 2.000000e+01
      vertex   1.000000e+01 -1.000000e+01 2.000000e+01
    endloop
  endfacet
  facet normal 0.000000e+00 -1.000000e+00 0.000000e+00
    outer loop
      vertex   -1.000000e+01 -1.000000e+01 0.000000e+00
      vertex   1.000000e+01 -1.000000e+01 0.000000e+00
      vertex   -1.000000e+01 -1.000000e+01 2.000000e+01
    endloop
  endfacet
  facet normal 0.000000e+00 -1.000000e+00 0.000000e+00
    outer loop
      vertex   -1.000000e+01 -1.000000e+01 2.000000e+01
      vertex   1.000000e+01 -1.000000e+01 0.000000e+00
      vertex   1.000000e+01 -1.000000e+01 2.000000e+01
    endloop
  endfacet
  facet normal 0.000000e+00 0.000000e+00 -1.000000e+00
    outer loop
      vertex   -1.000000e+01 2.000000e+01 0.000000e+00
      vertex   1.000000e+01 2.000000e+01 0.000000e+00
      vertex   -1.000000e+01 -1.000000e+01 0.000000e+00
    endloop
  endfacet
  facet normal 0.000000e+00 0.000000e+00 -1.000000e+00
    outer loop
      vertex   -1.000000e+01 -1.000000e+01 0.000000e+00
      vertex   1.000000e+01 2.000000e+01 0.000000e+00
      vertex   1.000000e+01 -1.000000e+01 0.000000e+00
    endloop
  endfacet
endsolid
